<?xml version="1.0" encoding="UTF-8"?>
<svg width="12px" height="12px" viewBox="0 0 12 12" version="1.1" xmlns="http://www.w3.org/2000/svg" xmlns:xlink="http://www.w3.org/1999/xlink">
    <!-- Generator: Sketch 55.2 (78181) - https://sketchapp.com -->
    <title>ic-Group 3</title>
    <desc>Created with Sketch.</desc>
    <defs>
        <polygon id="path-1" points="0 0 12 0 12 12 0 12"></polygon>
    </defs>
    <g id="Page-1" stroke="none" stroke-width="1" fill="none" fill-rule="evenodd">
        <g id="Usuario---Crear" transform="translate(-423.000000, -573.000000)">
            <g id="Group-5" transform="translate(200.000000, 101.000000)">
                <g id="Group-2-Copy-2" transform="translate(161.000000, 467.000000)">
                    <g id="Group">
                        <g id="Group-3" transform="translate(62.000000, 5.000000)">
                            <mask id="mask-2" fill="white">
                                <use xlink:href="#path-1"></use>
                            </mask>
                            <g id="Clip-2"></g>
                            <path d="M6.27483317,5.99879104 L11.9433437,0.330280526 C12.0188854,0.254714577 12.0188854,0.13222227 11.9433437,0.0566563204 C11.8677777,-0.0188854401 11.7452854,-0.0188854401 11.6697195,0.0566563204 L6.00120896,5.72516683 L0.332698446,0.0566563204 C0.255826299,-0.0175792425 0.133333992,-0.0154506243 0.0590742404,0.0614215227 C-0.0133471593,0.13640694 -0.0133471593,0.255295109 0.0590742404,0.330280526 L5.72758475,5.99879104 L0.0590742404,11.6673016 C-0.0177979066,11.7415613 -0.0199265249,11.8640536 0.0543332269,11.9409258 C0.128592979,12.0177979 0.251085286,12.0199265 0.327957433,11.9456668 C0.329578085,11.9441187 0.33115036,11.9425222 0.332698446,11.9409258 L6.00120896,6.27241525 L11.6697195,11.9409258 C11.7465916,12.0151855 11.8690597,12.0130569 11.9433437,11.9361847 C12.0157893,11.8611993 12.0157893,11.742287 11.9433437,11.6673016 L6.27483317,5.99879104 Z" id="Fill-1" fill="#333333" mask="url(#mask-2)"></path>
                        </g>
                    </g>
                </g>
            </g>
        </g>
    </g>
</svg>