<?xml version="1.0" encoding="utf-8"?>
<!-- Generator: Adobe Illustrator 25.2.1, SVG Export Plug-In . SVG Version: 6.00 Build 0)  -->
<svg version="1.1" id="Capa_1" xmlns="http://www.w3.org/2000/svg" xmlns:xlink="http://www.w3.org/1999/xlink" x="0px" y="0px"
	 viewBox="0 0 16 16" style="enable-background:new 0 0 16 16;" xml:space="preserve">
<style type="text/css">
	.st0{filter:url(#Adobe_OpacityMaskFilter);}
	.st1{fill-rule:evenodd;clip-rule:evenodd;fill:#FFFFFF;}
	.st2{mask:url(#mask-2_1_);fill-rule:evenodd;clip-rule:evenodd;fill:#FFFFFF;}
</style>
<desc>Created with Sketch.</desc>
<g id="Symbols">
	<g id="Tabla_Usuarios" transform="translate(-718.000000, -223.000000)">
		<g id="Group" transform="translate(0.000000, 3.000000)">
			<g id="Group-9-Copy-2" transform="translate(715.000000, 216.000000)">
				<g id="Group-3" transform="translate(3.333333, 4.000000)">
					<g id="Clip-2">
					</g>
					<defs>
						<filter id="Adobe_OpacityMaskFilter" filterUnits="userSpaceOnUse" x="0.2" y="0.7" width="15" height="13.8">
							<feColorMatrix  type="matrix" values="1 0 0 0 0  0 1 0 0 0  0 0 1 0 0  0 0 0 1 0"/>
						</filter>
					</defs>
					<mask maskUnits="userSpaceOnUse" x="0.2" y="0.7" width="15" height="13.8" id="mask-2_1_">
						<g className="st0">
							<polygon id="path-1_1_" className="st1" points="0.2,0.7 15.2,0.7 15.2,14.5 0.2,14.5 							"/>
						</g>
					</mask>
					<path id="Fill-1" className="st2" d="M7.6,5.1l2.1,2.2V7.2C9.7,5.9,8.8,5,7.6,5.1C7.6,5.1,7.6,5.1,7.6,5.1L7.6,5.1z M4.6,5.7l1,1.1
						v0.5c0,1.2,0.9,2.2,2.1,2.2c0.1,0,0.3,0,0.5-0.1l1,1.1c-0.5,0.3-1,0.4-1.5,0.4c-1.9,0-3.4-1.6-3.4-3.6C4.3,6.7,4.4,6.2,4.6,5.7
						L4.6,5.7z M0.9,1.7l1.6,1.7l0.3,0.3C1.5,4.6,0.6,5.8,0.2,7.2c1.2,3.2,4.1,5.4,7.5,5.4c1,0,2.1-0.2,3-0.6l0.3,0.3l2,2.1l0.9-0.9
						L1.7,0.7L0.9,1.7z M7.7,3.6c1.9,0,3.4,1.6,3.4,3.6c0,0.4-0.1,0.9-0.3,1.3l2,2.1c1-0.9,1.8-2.1,2.3-3.4C14,4.1,11.1,1.8,7.6,1.8
						c-1,0-1.8,0.2-2.7,0.5l1.5,1.6C6.8,3.7,7.3,3.6,7.7,3.6L7.7,3.6z"/>
				</g>
			</g>
		</g>
	</g>
</g>
</svg>
