<?xml version="1.0" encoding="utf-8"?>
<!-- Generator: Adobe Illustrator 25.2.1, SVG Export Plug-In . SVG Version: 6.00 Build 0)  -->
<svg version="1.1" id="Capa_1" xmlns="http://www.w3.org/2000/svg" xmlns:xlink="http://www.w3.org/1999/xlink" x="0px" y="0px"
	 viewBox="0 0 16 16" style="enable-background:new 0 0 16 16;" xml:space="preserve">
<style type="text/css">
	.st0{fill-rule:evenodd;clip-rule:evenodd;fill:#FFFFFF;}
	.st1{filter:url(#Adobe_OpacityMaskFilter);}
	.st2{mask:url(#mask-2_1_);fill-rule:evenodd;clip-rule:evenodd;fill:#FFFFFF;}
</style>
<desc>Created with Sketch.</desc>
<g id="Symbols">
	<g id="Tabla_Usuarios" transform="translate(-749.000000, -222.000000)">
		<g id="Group" transform="translate(0.000000, 3.000000)">
			<g id="Group-8-Copy-2" transform="translate(745.000000, 216.000000)">
				<g id="Group-10" transform="translate(4.666667, 3.333333)">
					<path id="Fill-1" className="st0" d="M9.4,5.6c-0.2,0-0.3,0.2-0.3,0.3v6.5c0,0.2,0.1,0.3,0.3,0.3c0.2,0,0.3-0.2,0.3-0.3V5.9
						C9.7,5.7,9.6,5.6,9.4,5.6"/>
					<path id="Fill-3" className="st0" d="M5.2,5.6c-0.2,0-0.3,0.2-0.3,0.3v6.5c0,0.2,0.1,0.3,0.3,0.3c0.2,0,0.3-0.2,0.3-0.3V5.9
						C5.5,5.7,5.4,5.6,5.2,5.6"/>
					<g id="Group-7">
						<g id="Clip-6">
						</g>
						<defs>
							<filter id="Adobe_OpacityMaskFilter" filterUnits="userSpaceOnUse" x="1.3" y="0.2" width="12" height="15">
								<feColorMatrix  type="matrix" values="1 0 0 0 0  0 1 0 0 0  0 0 1 0 0  0 0 0 1 0"/>
							</filter>
						</defs>
						<mask maskUnits="userSpaceOnUse" x="1.3" y="0.2" width="12" height="15" id="mask-2_1_">
							<g className="st1">
								<polygon id="path-1_1_" className="st0" points="1.3,0.2 13.4,0.2 13.4,15.2 1.3,15.2 								"/>
							</g>
						</mask>
						<path id="Fill-5" className="st2" d="M2.6,2.7H12c0.3,0,0.6,0.3,0.6,0.6S12.4,4,12,4H2.6C2.3,4,2,3.7,2,3.3S2.3,2.7,2.6,2.7
							L2.6,2.7z M5.1,1.6c0-0.2,0.1-0.4,0.2-0.5c0.1-0.1,0.3-0.2,0.5-0.2h3.1c0.2,0,0.4,0.1,0.5,0.2c0.1,0.1,0.2,0.3,0.2,0.5V2H5.1
							V1.6z M10.6,14.5H4c-0.6,0-1.1-0.5-1.1-1.2V4.7h8.7v8.6C11.7,13.9,11.2,14.5,10.6,14.5L10.6,14.5z M2.3,4.6v8.7
							c0,0.5,0.2,1,0.5,1.3C3.1,15,3.6,15.2,4,15.2h6.6c0.5,0,0.9-0.2,1.2-0.5c0.3-0.3,0.5-0.8,0.5-1.3V4.6c0.6-0.2,1.1-0.8,1-1.5
							C13.3,2.5,12.7,2,12,2h-1.8V1.6c0-0.4-0.1-0.7-0.4-1c-0.3-0.3-0.6-0.4-1-0.4H5.8c-0.4,0-0.7,0.1-1,0.4c-0.3,0.3-0.4,0.6-0.4,1
							V2H2.6C2,2,1.4,2.5,1.3,3.2C1.2,3.8,1.6,4.5,2.3,4.6L2.3,4.6z"/>
					</g>
					<path id="Fill-8" className="st0" d="M7.6,5.6c-0.2,0-0.3,0.2-0.3,0.3v6.5c0,0.2,0.1,0.3,0.3,0.3c0.2,0,0.3-0.2,0.3-0.3V5.9
						C7.9,5.7,7.8,5.6,7.6,5.6"/>
				</g>
			</g>
		</g>
	</g>
</g>
</svg>
