<svg width="26" height="26" viewBox="0 0 26 26" fill="none" xmlns="http://www.w3.org/2000/svg">
<path fill-rule="evenodd" clip-rule="evenodd" d="M19.4896 4.88044H18.6962V3.25H17.0621V4.88044H8.93621V3.25H7.32393V4.88044H6.51265C5.6185 4.88044 4.693 5.09038 4.0633 5.72068C3.4336 6.35097 3.17547 7.23446 3.26841 8.12096V19.4865C3.17547 20.373 3.48728 21.2542 4.11698 21.8845C4.74668 22.5148 5.62698 22.8269 6.51265 22.7338H19.4896C20.3753 22.8269 21.2556 22.5148 21.8853 21.8845C22.515 21.2542 22.8268 20.373 22.7339 19.4865V8.12096C22.8268 7.23446 21.8853 5.72068 21.8853 5.72068C21.8853 5.72068 20.3911 4.88044 19.4896 4.88044ZM7.3125 9.75H8.9375V11.375H7.3125V9.75ZM13.8125 9.75H12.1875V11.375H13.8125V9.75ZM21.1261 19.5C21.1261 20.67 20.6711 21.125 19.5011 21.125H6.50113C5.33113 21.125 4.87613 20.67 4.87613 19.5V8.125C4.87613 7.16296 5.55454 6.5 6.50113 6.5H7.31814V7.31749H8.93457V6.5H17.0618V7.31749H18.6848V6.5H19.5011C20.6711 6.5 21.1261 6.955 21.1261 8.125V19.5ZM18.6875 9.75H17.0625V11.375H18.6875V9.75ZM7.3125 13H8.9375V14.625H7.3125V13ZM13.8125 13H12.1875V14.625H13.8125V13ZM17.0625 13H18.6875V14.625H17.0625V13ZM8.9375 16.25H7.3125V17.875H8.9375V16.25ZM12.1875 16.25H13.8125V17.875H12.1875V16.25ZM18.6875 16.25H17.0625V17.875H18.6875V16.25Z" fill="#373737"/>
</svg>
