<?xml version="1.0" encoding="UTF-8"?>
<svg width="17px" height="15px" viewBox="0 0 17 15" version="1.1" xmlns="http://www.w3.org/2000/svg" xmlns:xlink="http://www.w3.org/1999/xlink">
    <!-- Generator: Sketch 55.2 (78181) - https://sketchapp.com -->
    <title>ic-Group 10</title>
    <desc>Created with Sketch.</desc>
    <defs>
        <polygon id="path-1" points="4.42708333e-06 0.0210978947 16.9764036 0.0210978947 16.9764036 2.99791895 4.42708333e-06 2.99791895"></polygon>
        <polygon id="path-3" points="1.77083333e-05 0.00634105263 16.9764036 0.00634105263 16.9764036 2.98316211 1.77083333e-05 2.98316211"></polygon>
        <polygon id="path-5" points="8.85416667e-06 0.0231789474 16.9764036 0.0231789474 16.9764036 3 8.85416667e-06 3"></polygon>
    </defs>
    <g id="Symbols" stroke="none" stroke-width="1" fill="none" fill-rule="evenodd">
        <g id="Tabla_Salas" transform="translate(-284.000000, -12.000000)">
            <g id="Group" transform="translate(276.000000, 4.000000)">
                <g id="Group-10" transform="translate(8.000000, 8.000000)">
                    <g id="Group-3">
                        <mask id="mask-2" fill="white">
                            <use xlink:href="#path-1"></use>
                        </mask>
                        <g id="Clip-2"></g>
                        <path d="M4.22047578,2.05055053 C3.80224922,2.05055053 3.46198359,1.80783474 3.46198359,1.50950842 C3.46198359,1.21118211 3.80224922,0.968466316 4.22047578,0.968466316 C4.63870234,0.968466316 4.97896797,1.21118211 4.97896797,1.50950842 C4.97896797,1.80783474 4.63870234,2.05055053 4.22047578,2.05055053 M16.3123013,1.03582421 L6.19814245,1.03582421 C5.92007734,0.446718947 5.13891849,0.0210978947 4.22047578,0.0210978947 C3.30203307,0.0210978947 2.52087422,0.446718947 2.24280911,1.03582421 L0.664066927,1.03582421 C0.297327344,1.03582421 4.42708333e-06,1.24790842 4.42708333e-06,1.50950842 C4.42708333e-06,1.77110842 0.297327344,1.98319263 0.664066927,1.98319263 L2.24285339,1.98319263 C2.52091849,2.57229789 3.30207734,2.99791895 4.22052005,2.99791895 C5.13896276,2.99791895 5.92012161,2.57229789 6.19818672,1.98319263 L16.3123456,1.98319263 C16.6790409,1.98319263 16.9764081,1.77110842 16.9764081,1.50950842 C16.9764081,1.24790842 16.6790409,1.03582421 16.3123013,1.03582421" id="Fill-1" fill="#FFFFFF" mask="url(#mask-2)"></path>
                    </g>
                    <g id="Group-6" transform="translate(0.000000, 6.000000)">
                        <mask id="mask-4" fill="white">
                            <use xlink:href="#path-3"></use>
                        </mask>
                        <g id="Clip-5"></g>
                        <path d="M12.7559057,2.03579368 C12.3376792,2.03579368 11.9973693,1.79307789 11.9973693,1.49475158 C11.9973693,1.19642526 12.3376792,0.953709474 12.7559057,0.953709474 C13.174088,0.953709474 13.5143979,1.19642526 13.5143979,1.49475158 C13.5143979,1.79307789 13.174088,2.03579368 12.7559057,2.03579368 M16.3123146,1.02106737 L14.7335281,1.02106737 C14.455463,0.431962105 13.6742156,0.00634105263 12.7558615,0.00634105263 C11.837463,0.00634105263 11.0562599,0.431962105 10.7782391,1.02106737 L0.664080208,1.02106737 C0.297340625,1.02106737 1.77083333e-05,1.23315158 1.77083333e-05,1.49475158 C1.77083333e-05,1.75635158 0.297340625,1.96843579 0.664080208,1.96843579 L10.7782391,1.96843579 C11.0562599,2.55754105 11.8375073,2.98316211 12.7559057,2.98316211 C13.6742599,2.98316211 14.4555073,2.55754105 14.7335724,1.96843579 L16.3123589,1.96843579 C16.6790542,1.96843579 16.9764214,1.75635158 16.9764214,1.49475158 C16.9764214,1.23315158 16.6790542,1.02106737 16.3123146,1.02106737" id="Fill-4" fill="#FFFFFF" mask="url(#mask-4)"></path>
                    </g>
                    <g id="Group-9" transform="translate(0.000000, 12.000000)">
                        <mask id="mask-6" fill="white">
                            <use xlink:href="#path-5"></use>
                        </mask>
                        <g id="Clip-8"></g>
                        <path d="M7.06563385,2.05266316 C6.64740729,2.05266316 6.30714167,1.80994737 6.30714167,1.51162105 C6.30714167,1.21329474 6.64740729,0.970578947 7.06563385,0.970578947 C7.48386042,0.970578947 7.82412604,1.21326316 7.82412604,1.51158947 C7.82412604,1.80991579 7.48386042,2.05266316 7.06563385,2.05266316 M16.3123057,1.03790526 L9.04330052,1.03790526 C8.76523542,0.4488 7.98407656,0.0231789474 7.06563385,0.0231789474 C6.14719115,0.0231789474 5.36603229,0.4488 5.08796719,1.03790526 L0.664071354,1.03790526 C0.297331771,1.03790526 8.85416667e-06,1.24998947 8.85416667e-06,1.51158947 C8.85416667e-06,1.77318947 0.297331771,1.98527368 0.664071354,1.98527368 L5.08796719,1.98527368 C5.36603229,2.57437895 6.14719115,3 7.06563385,3 C7.98407656,3 8.76523542,2.57437895 9.04330052,1.98527368 L16.31235,1.98527368 C16.6790453,1.98527368 16.9764125,1.77318947 16.9764125,1.51158947 C16.9764125,1.24998947 16.6790453,1.03790526 16.3123057,1.03790526" id="Fill-7" fill="#FFFFFF" mask="url(#mask-6)"></path>
                    </g>
                </g>
            </g>
        </g>
    </g>
</svg>