<svg width="20" height="22" viewBox="0 0 20 22" fill="none" xmlns="http://www.w3.org/2000/svg">
<path d="M9.67051 0.0225525C7.69572 0.0225525 5.80188 0.807016 4.40552 2.20337C3.00917 3.59974 2.22471 5.4936 2.22471 7.46835V13.276L0.576699 15.758C0.379168 16.0626 0.267132 16.4146 0.2523 16.7774C0.237477 17.14 0.320402 17.5001 0.492412 17.8197C0.664423 18.1394 0.919197 18.4069 1.23006 18.5944C1.54093 18.7819 1.89645 18.8823 2.25945 18.8852H17.0815C17.4469 18.8841 17.8051 18.784 18.1182 18.5958C18.4314 18.4076 18.6878 18.1382 18.8602 17.8161C19.0326 17.494 19.1148 17.1314 19.0979 16.7664C19.0811 16.4015 18.9658 16.0478 18.7643 15.7431L17.1163 13.276V7.46835C17.1163 5.4936 16.3318 3.59974 14.9355 2.20337C13.5391 0.807016 11.6452 0.0225525 9.67051 0.0225525Z" fill="white"/>
<path d="M9.67038 21.8638C10.2857 21.8631 10.8857 21.6718 11.3879 21.3163C11.8901 20.9606 12.2699 20.4583 12.4749 19.8782H6.86582C7.0709 20.4583 7.45068 20.9606 7.95282 21.3163C8.45505 21.6718 9.05506 21.8631 9.67038 21.8638Z" fill="white"/>
</svg>
