<svg width="78" height="82" viewBox="0 0 78 82" fill="none" xmlns="http://www.w3.org/2000/svg">
<path d="M1.95148 81.25H76.1671C76.842 81.25 77.3686 80.6782 77.3686 80V73.375C77.3686 72.6968 76.842 72.125 76.1671 72.125H75.7625V50.741H76.1671C76.842 50.741 77.3686 50.1692 77.3686 49.491V42.866C77.3686 42.1878 76.842 41.616 76.1671 41.616H74.9698C74.7562 37.5547 71.8254 34.2322 68.037 33.653C67.779 29.2023 64.2581 25.642 59.932 25.642C57.001 25.642 54.433 27.2771 53.0033 29.7144C51.5737 27.2771 49.0065 25.642 46.0746 25.642C43.1427 25.642 40.5755 27.2771 39.1459 29.7144C37.7163 27.2771 35.1491 25.642 32.2172 25.642C29.2853 25.642 26.7181 27.2771 25.2885 29.7144C23.8589 27.2771 21.2917 25.642 18.3598 25.642C14.0327 25.642 10.5118 29.2023 10.2547 33.653C6.46645 34.2332 3.53552 37.5547 3.32194 41.616H1.95148C1.27662 41.616 0.75 42.1878 0.75 42.866V49.491C0.75 50.1692 1.27662 50.741 1.95148 50.741H2.3561V72.125H1.95148C1.27662 72.125 0.75 72.6968 0.75 73.375V80C0.75 80.6782 1.27662 81.25 1.95148 81.25ZM74.9656 78.75H3.15297V74.625H74.9656V78.75ZM66.8597 36.057C69.8543 36.057 72.3317 38.5006 72.5627 41.616H61.1577C61.3887 38.5006 63.8652 36.057 66.8597 36.057ZM25.2894 36.057C28.2849 36.057 30.7615 38.5006 30.9915 41.616H19.5865C19.8174 38.5006 22.294 36.057 25.2894 36.057ZM39.1459 36.057C42.1414 36.057 44.6179 38.5006 44.848 41.616H33.4439C33.6748 38.5006 36.1514 36.057 39.1459 36.057ZM53.0033 36.057C55.9988 36.057 58.4753 38.5006 58.7054 41.616H47.3003C47.5313 38.5006 50.0078 36.057 53.0033 36.057ZM59.932 28.141C62.915 28.141 65.3823 30.564 65.6311 33.6616C63.2211 34.0472 61.1577 35.5406 59.9319 37.6295C58.7063 35.5414 56.6437 34.0472 54.2328 33.6615C54.4807 30.564 56.9489 28.141 59.932 28.141ZM46.0746 28.141C49.0576 28.141 51.5249 30.564 51.7737 33.6616C49.3637 34.0472 47.3003 35.5406 46.0745 37.6295C44.8489 35.5414 42.7863 34.0472 40.3755 33.6615C40.6242 30.5639 43.0916 28.141 46.0746 28.141ZM32.2181 28.141C35.2012 28.141 37.6685 30.564 37.9172 33.6616C35.5072 34.0472 33.4438 35.5406 32.2181 37.6295C30.9925 35.5414 28.9298 34.0472 26.519 33.6615C26.7669 30.564 29.2351 28.141 32.2181 28.141ZM18.3608 28.141C21.3438 28.141 23.8111 30.564 24.0598 33.6616C21.6498 34.0472 19.5864 35.5406 18.3607 37.6295C17.1351 35.5414 15.0725 34.0472 12.6617 33.6615C12.9104 30.5639 15.3777 28.141 18.3608 28.141ZM11.4321 36.057C14.4275 36.057 16.9041 38.5006 17.1341 41.616H5.73004C5.96099 38.5006 8.43755 36.057 11.4321 36.057ZM3.15297 44.116H74.9656V48.241H3.15297V44.116ZM4.75907 50.741H73.3605V72.125H4.75907V50.741Z" fill="black" stroke="black" stroke-width="0.5"/>
<path d="M48.5449 54.21H29.5723C28.8975 54.21 28.3709 54.7818 28.3709 55.46V64.169C28.3709 64.8472 28.8975 65.419 29.5723 65.419H48.5449C49.2198 65.419 49.7464 64.8472 49.7464 64.169V55.46C49.7464 54.7818 49.2198 54.21 48.5449 54.21ZM47.3434 62.92H30.7738V56.71H47.3434V62.92Z" fill="black" stroke="black" stroke-width="0.5"/>
<path d="M1.95148 3.25H8.68251V17.948C8.68251 18.6262 9.20913 19.198 9.88399 19.198H24.4655C25.1403 19.198 25.6669 18.6262 25.6669 17.948V3.25H30.5666V17.948C30.5666 18.6262 31.0932 19.198 31.7681 19.198H46.3496C47.0244 19.198 47.551 18.6262 47.551 17.948V3.25H52.4507V17.948C52.4507 18.6262 52.9773 19.198 53.6522 19.198H68.2337C68.9085 19.198 69.4351 18.6262 69.4351 17.948V3.25H76.1671C76.842 3.25 77.3686 2.67821 77.3686 2C77.3686 1.32179 76.842 0.75 76.1671 0.75H1.95148C1.27662 0.75 0.75 1.32179 0.75 2C0.75 2.67821 1.27662 3.25 1.95148 3.25ZM23.2649 16.698H11.0855V3.25H23.264L23.2649 16.698ZM45.149 16.698H32.9696V3.25H45.1481L45.149 16.698ZM67.0331 16.698H54.8537V3.25H67.0322L67.0331 16.698Z" fill="black" stroke="black" stroke-width="0.5"/>
</svg>
