<?xml version="1.0" encoding="utf-8"?>
<!-- Generator: Adobe Illustrator 25.2.1, SVG Export Plug-In . SVG Version: 6.00 Build 0)  -->
<svg version="1.1" id="Capa_1" xmlns="http://www.w3.org/2000/svg" xmlns:xlink="http://www.w3.org/1999/xlink" x="0px" y="0px"
	 viewBox="0 0 16 16" style="enable-background:new 0 0 16 16;" xml:space="preserve">
<style type="text/css">
	.st0{fill-rule:evenodd;clip-rule:evenodd;fill:#FFFFFF;}
	.st1{filter:url(#Adobe_OpacityMaskFilter);}
	.st2{mask:url(#mask-2_1_);fill-rule:evenodd;clip-rule:evenodd;fill:#FFFFFF;}
	.st3{filter:url(#Adobe_OpacityMaskFilter_1_);}
	.st4{mask:url(#mask-2_2_);fill-rule:evenodd;clip-rule:evenodd;fill:#FFFFFF;}
	.st5{filter:url(#Adobe_OpacityMaskFilter_2_);}
	.st6{mask:url(#mask-2_3_);fill-rule:evenodd;clip-rule:evenodd;fill:#FFFFFF;}
	.st7{filter:url(#Adobe_OpacityMaskFilter_3_);}
	.st8{mask:url(#mask-2_4_);fill-rule:evenodd;clip-rule:evenodd;fill:#FFFFFF;}
	.st9{filter:url(#Adobe_OpacityMaskFilter_4_);}
	.st10{mask:url(#mask-2_5_);fill-rule:evenodd;clip-rule:evenodd;fill:#FFFFFF;}
	.st11{filter:url(#Adobe_OpacityMaskFilter_5_);}
	.st12{mask:url(#mask-2_6_);fill-rule:evenodd;clip-rule:evenodd;fill:#FFFFFF;}
	.st13{filter:url(#Adobe_OpacityMaskFilter_6_);}
	.st14{mask:url(#mask-2_7_);fill-rule:evenodd;clip-rule:evenodd;fill:#FFFFFF;}
</style>
<desc>Created with Sketch.</desc>
<g id="Symbols">
	<g id="Tabla_Usuarios" transform="translate(-660.000000, -222.000000)">
		<g id="Group" transform="translate(0.000000, 3.000000)">
			<g id="Group-11-Copy-3" transform="translate(655.000000, 216.000000)">
				<g id="Group-13" transform="translate(5.333333, 3.333333)">
					<path id="Fill-1" className="st0" d="M12.7,14.4c0,0.1-0.1,0.2-0.2,0.2H3.1c-0.1,0-0.2-0.1-0.2-0.2V0.9c0-0.1,0.1-0.2,0.2-0.2h7.1
						v1.8c0,0.4,0.3,0.8,0.7,0.8h1.7V14.4z M10.7,1l1.6,1.6H11c-0.1,0-0.2-0.1-0.2-0.3V1z M13.2,2.9c0-0.1,0-0.1-0.1-0.2l-2.5-2.5
						c0,0-0.1-0.1-0.2-0.1v0H3.1c-0.4,0-0.7,0.3-0.7,0.8v13.5c0,0.4,0.3,0.8,0.7,0.8h9.3c0.4,0,0.7-0.3,0.7-0.8L13.2,2.9L13.2,2.9z"
						/>
					<path id="Fill-3" className="st0" d="M4.8,8C4.7,8,4.6,7.8,4.6,7.7c0-0.2,0.1-0.3,0.2-0.3C4.9,7.4,5,7.5,5,7.7C5,7.8,4.9,8,4.8,8
						 M4.8,6.8c-0.3,0-0.6,0.4-0.6,0.9c0,0.5,0.3,0.9,0.6,0.9s0.6-0.4,0.6-0.9C5.4,7.2,5.1,6.8,4.8,6.8"/>
					<g id="Clip-6">
					</g>
					<defs>
						<filter id="Adobe_OpacityMaskFilter" filterUnits="userSpaceOnUse" x="6.6" y="7.4" width="4.8" height="0.6">
							<feColorMatrix  type="matrix" values="1 0 0 0 0  0 1 0 0 0  0 0 1 0 0  0 0 0 1 0"/>
						</filter>
					</defs>
					<mask maskUnits="userSpaceOnUse" x="6.6" y="7.4" width="4.8" height="0.6" id="mask-2_1_">
						<g className="st1">
							<polygon id="path-1_1_" className="st0" points="2.4,15.2 13.2,15.2 13.2,0.2 2.4,0.2 							"/>
						</g>
					</mask>
					<polygon id="Fill-5" className="st2" points="6.6,8 11.4,8 11.4,7.4 6.6,7.4 					"/>
					<defs>
						<filter id="Adobe_OpacityMaskFilter_1_" filterUnits="userSpaceOnUse" x="4.2" y="4.4" width="1.2" height="1.8">
							<feColorMatrix  type="matrix" values="1 0 0 0 0  0 1 0 0 0  0 0 1 0 0  0 0 0 1 0"/>
						</filter>
					</defs>
					<mask maskUnits="userSpaceOnUse" x="4.2" y="4.4" width="1.2" height="1.8" id="mask-2_2_">
						<g className="st3">
							<polygon id="path-1_2_" className="st0" points="2.4,15.2 13.2,15.2 13.2,0.2 2.4,0.2 							"/>
						</g>
					</mask>
					<path id="Fill-7" className="st4" d="M4.8,5.6c-0.1,0-0.2-0.1-0.2-0.3C4.6,5.1,4.7,5,4.8,5C4.9,5,5,5.1,5,5.3
						C5,5.4,4.9,5.6,4.8,5.6 M4.8,4.4c-0.3,0-0.6,0.4-0.6,0.9s0.3,0.9,0.6,0.9s0.6-0.4,0.6-0.9S5.1,4.4,4.8,4.4"/>
					<defs>
						<filter id="Adobe_OpacityMaskFilter_2_" filterUnits="userSpaceOnUse" x="6.6" y="5" width="4.8" height="0.6">
							<feColorMatrix  type="matrix" values="1 0 0 0 0  0 1 0 0 0  0 0 1 0 0  0 0 0 1 0"/>
						</filter>
					</defs>
					<mask maskUnits="userSpaceOnUse" x="6.6" y="5" width="4.8" height="0.6" id="mask-2_3_">
						<g className="st5">
							<polygon id="path-1_3_" className="st0" points="2.4,15.2 13.2,15.2 13.2,0.2 2.4,0.2 							"/>
						</g>
					</mask>
					<polygon id="Fill-8" className="st6" points="6.6,5.6 11.4,5.6 11.4,5 6.6,5 					"/>
					<defs>
						<filter id="Adobe_OpacityMaskFilter_3_" filterUnits="userSpaceOnUse" x="4.2" y="9.2" width="1.2" height="1.8">
							<feColorMatrix  type="matrix" values="1 0 0 0 0  0 1 0 0 0  0 0 1 0 0  0 0 0 1 0"/>
						</filter>
					</defs>
					<mask maskUnits="userSpaceOnUse" x="4.2" y="9.2" width="1.2" height="1.8" id="mask-2_4_">
						<g className="st7">
							<polygon id="path-1_4_" className="st0" points="2.4,15.2 13.2,15.2 13.2,0.2 2.4,0.2 							"/>
						</g>
					</mask>
					<path id="Fill-9" className="st8" d="M4.8,10.4c-0.1,0-0.2-0.1-0.2-0.3c0-0.2,0.1-0.3,0.2-0.3C4.9,9.8,5,9.9,5,10.1
						C5,10.2,4.9,10.4,4.8,10.4 M4.8,9.2c-0.3,0-0.6,0.4-0.6,0.9S4.5,11,4.8,11s0.6-0.4,0.6-0.9S5.1,9.2,4.8,9.2"/>
					<defs>
						<filter id="Adobe_OpacityMaskFilter_4_" filterUnits="userSpaceOnUse" x="6.6" y="9.8" width="4.8" height="0.6">
							<feColorMatrix  type="matrix" values="1 0 0 0 0  0 1 0 0 0  0 0 1 0 0  0 0 0 1 0"/>
						</filter>
					</defs>
					<mask maskUnits="userSpaceOnUse" x="6.6" y="9.8" width="4.8" height="0.6" id="mask-2_5_">
						<g className="st9">
							<polygon id="path-1_5_" className="st0" points="2.4,15.2 13.2,15.2 13.2,0.2 2.4,0.2 							"/>
						</g>
					</mask>
					<polygon id="Fill-10" className="st10" points="6.6,10.4 11.4,10.4 11.4,9.8 6.6,9.8 					"/>
					<defs>
						<filter id="Adobe_OpacityMaskFilter_5_" filterUnits="userSpaceOnUse" x="4.2" y="11.6" width="1.2" height="1.8">
							<feColorMatrix  type="matrix" values="1 0 0 0 0  0 1 0 0 0  0 0 1 0 0  0 0 0 1 0"/>
						</filter>
					</defs>
					<mask maskUnits="userSpaceOnUse" x="4.2" y="11.6" width="1.2" height="1.8" id="mask-2_6_">
						<g className="st11">
							<polygon id="path-1_6_" className="st0" points="2.4,15.2 13.2,15.2 13.2,0.2 2.4,0.2 							"/>
						</g>
					</mask>
					<path id="Fill-11" className="st12" d="M4.8,12.8c-0.1,0-0.2-0.1-0.2-0.3c0-0.2,0.1-0.3,0.2-0.3c0.1,0,0.2,0.1,0.2,0.3
						C5,12.6,4.9,12.8,4.8,12.8 M4.8,11.6c-0.3,0-0.6,0.4-0.6,0.9s0.3,0.9,0.6,0.9s0.6-0.4,0.6-0.9S5.1,11.6,4.8,11.6"/>
					<defs>
						<filter id="Adobe_OpacityMaskFilter_6_" filterUnits="userSpaceOnUse" x="6.6" y="12.8" width="4.8" height="0.6">
							<feColorMatrix  type="matrix" values="1 0 0 0 0  0 1 0 0 0  0 0 1 0 0  0 0 0 1 0"/>
						</filter>
					</defs>
					<mask maskUnits="userSpaceOnUse" x="6.6" y="12.8" width="4.8" height="0.6" id="mask-2_7_">
						<g className="st13">
							<polygon id="path-1_7_" className="st0" points="2.4,15.2 13.2,15.2 13.2,0.2 2.4,0.2 							"/>
						</g>
					</mask>
					<polygon id="Fill-12" className="st14" points="6.6,13.4 11.4,13.4 11.4,12.8 6.6,12.8 					"/>
				</g>
			</g>
		</g>
	</g>
</g>
</svg>
