<?xml version="1.0" encoding="UTF-8"?>
<svg width="15px" height="15px" viewBox="0 0 15 15" version="1.1" xmlns="http://www.w3.org/2000/svg" xmlns:xlink="http://www.w3.org/1999/xlink">
    <!-- Generator: Sketch 55.2 (78181) - https://sketchapp.com -->
    <title>ic-Fill 1</title>
    <desc>Created with Sketch.</desc>
    <g id="Symbols" stroke="none" stroke-width="1" fill="none" fill-rule="evenodd">
        <g id="Buscador" transform="translate(-119.000000, -9.000000)" fill="#FFFFFF">
            <g id="Fill-1">
                <path d="M125,20 C122.242656,20 120,17.7573438 120,15 C120,12.2426562 122.242656,10 125,10 C127.757344,10 130,12.2426562 130,15 C130,17.7573438 127.757312,20 125,20 M133.816702,22.933125 L129.551124,18.6675 C130.377375,17.6468848 130.87486,16.35 130.87486,14.9375098 C130.87486,11.6637598 128.211129,9 124.937415,9 C121.663701,9 119,11.6637305 119,14.9374805 C119,18.2112305 121.663731,20.8749902 124.937445,20.8749902 C126.349919,20.8749902 127.64679,20.3775293 128.667394,19.5512402 L132.932972,23.8168652 C133.054846,23.9387402 133.214834,24 133.374852,24 C133.53487,24 133.694858,23.9387402 133.816732,23.8168652 C134.061094,23.5725 134.061094,23.1774902 133.816702,22.933125"></path>
            </g>
        </g>
    </g>
</svg>