<?xml version="1.0" encoding="utf-8"?>
<!-- Generator: Adobe Illustrator 25.2.1, SVG Export Plug-In . SVG Version: 6.00 Build 0)  -->
<svg version="1.1" id="Capa_1" xmlns="http://www.w3.org/2000/svg" xmlns:xlink="http://www.w3.org/1999/xlink" x="0px" y="0px"
	 viewBox="0 0 16 16" style="enable-background:new 0 0 16 16;" xml:space="preserve">
<style type="text/css">
	.st0{filter:url(#Adobe_OpacityMaskFilter);}
	.st1{fill-rule:evenodd;clip-rule:evenodd;fill:#FFFFFF;}
	.st2{mask:url(#mask-2_1_);fill-rule:evenodd;clip-rule:evenodd;fill:#FFFFFF;}
</style>
<desc>Created with Sketch.</desc>
<g id="Symbols">
	<g id="Tabla_Usuarios" transform="translate(-688.000000, -222.000000)">
		<g id="Group" transform="translate(0.000000, 3.000000)">
			<g id="Group-12-Copy-2" transform="translate(685.000000, 216.000000)">
				<g id="Group-6" transform="translate(3.333333, 3.333333)">
					<g id="Group-3" transform="translate(0.000000, 1.066667)">
						<g id="Clip-2">
						</g>
						<defs>
							<filter id="Adobe_OpacityMaskFilter" filterUnits="userSpaceOnUse" x="0.2" y="0.3" width="14.4" height="13.8">
								<feColorMatrix  type="matrix" values="1 0 0 0 0  0 1 0 0 0  0 0 1 0 0  0 0 0 1 0"/>
							</filter>
						</defs>
						<mask maskUnits="userSpaceOnUse" x="0.2" y="0.3" width="14.4" height="13.8" id="mask-2_1_">
							<g className="st0">
								<polygon id="path-1_1_" className="st1" points="0.2,0.3 14.5,0.3 14.5,14.1 0.2,14.1 								"/>
							</g>
						</mask>
						<path id="Fill-1" className="st2" d="M14.2,8.4c-0.2,0-0.4,0.2-0.4,0.4v3.4c0,0.6-0.5,1.1-1.1,1.1H2.1c-0.6,0-1.1-0.5-1.1-1.1V2.2
							c0-0.6,0.5-1.1,1.1-1.1h3.4c0.2,0,0.4-0.2,0.4-0.4c0-0.2-0.2-0.4-0.4-0.4H2.1c-1,0-1.9,0.9-1.9,1.9v9.9c0,1.1,0.8,1.9,1.9,1.9
							h10.6c1,0,1.9-0.9,1.9-1.9V8.8C14.5,8.6,14.4,8.4,14.2,8.4"/>
					</g>
					<path id="Fill-4" className="st1" d="M14.1,3.1l-0.4,0.4l-1.8-1.8l0.4-0.4c0.4-0.4,1-0.4,1.4,0l0.5,0.5C14.5,2.1,14.5,2.7,14.1,3.1
						L14.1,3.1z M5.3,8.6l1.5,1.5l-2,0.6L5.3,8.6z M5.6,7.9l5.7-5.7L13.1,4L7.5,9.7L5.6,7.9z M14.2,0.7c-0.7-0.7-1.8-0.7-2.5,0
						L4.8,7.6c0,0-0.1,0.1-0.1,0.2l-0.9,3.3c0,0.1,0,0.3,0.1,0.4c0.1,0.1,0.2,0.1,0.4,0.1l3.3-0.9c0.1,0,0.1-0.1,0.2-0.1l6.9-6.9
						c0.7-0.7,0.7-1.8,0-2.5L14.2,0.7z"/>
				</g>
			</g>
		</g>
	</g>
</g>
</svg>
